<svg version="1.1" id="Layer_1" xmlns="http://www.w3.org/2000/svg" xmlns:xlink="http://www.w3.org/1999/xlink" x="0px" y="0px"
	 width="100%" viewBox="0 0 176 176" enable-background="new 0 0 176 176" xml:space="preserve">
<path fill="#000000" opacity="1.000000" stroke="none" 
	d="
M14.437500,177.000000 
	C20.595802,168.071075 29.734776,162.320969 39.152832,156.790314 
	C29.681032,157.612900 21.100126,161.229248 12.535842,164.894073 
	C11.772140,165.220886 11.072704,165.697525 10.309769,166.026566 
	C8.520958,166.798080 6.385115,168.299164 5.167192,165.648956 
	C4.096171,163.318436 6.456347,162.526443 8.000744,161.738174 
	C20.570894,155.322357 33.967857,151.434677 47.812290,149.011200 
	C54.871334,147.775528 62.019196,147.331345 69.172035,146.969162 
	C71.047737,146.874191 74.001793,147.487823 74.082138,144.902924 
	C74.162605,142.313919 73.855057,139.032700 70.699463,137.696198 
	C64.975037,135.271759 59.279705,133.984192 53.700119,138.297287 
	C51.068245,140.331741 48.153923,141.990372 44.986782,143.123871 
	C38.089581,145.592270 31.164265,141.715195 29.984238,134.529175 
	C29.630318,132.373901 29.354113,130.636017 26.777821,130.254623 
	C25.351488,130.043457 24.246937,129.101151 24.206808,127.601242 
	C24.164291,126.012199 25.478418,125.304626 26.799969,124.971016 
	C38.278622,122.073418 45.024910,114.459717 49.651134,103.827530 
	C54.392887,92.929825 60.495754,82.713692 71.755531,76.982620 
	C73.494492,76.097527 73.665947,74.436432 74.049606,72.801117 
	C75.153259,68.096977 76.391907,63.498383 79.393112,59.477283 
	C87.774223,48.248009 104.069847,47.948513 112.453293,59.150654 
	C114.438850,61.803799 116.585693,63.681896 119.821800,64.663612 
	C124.181404,65.986160 124.331848,67.094208 121.184097,70.174278 
	C115.862198,75.381752 115.666855,76.452171 118.824074,83.106850 
	C126.346489,98.962296 117.433800,122.584534 100.357925,132.013016 
	C99.046928,132.736862 97.661217,133.324493 96.341232,134.033188 
	C93.039108,135.806046 92.413239,139.004654 95.615067,140.890182 
	C98.887512,142.817291 102.071022,145.613983 106.521065,144.943054 
	C112.938293,143.975540 119.479485,143.669418 125.810318,142.334366 
	C132.278046,140.970428 135.873581,135.610016 139.384644,130.528610 
	C140.343719,129.140564 139.215714,127.646652 138.761368,126.246048 
	C135.674377,116.730057 139.454834,107.816734 148.348465,103.071915 
	C151.585144,101.345116 153.244751,102.219337 154.308716,105.487755 
	C157.108337,114.087990 157.816559,124.908524 146.500183,130.994965 
	C143.337296,132.696106 139.458969,136.028244 140.065002,141.295364 
	C140.318405,143.497589 138.129379,144.261551 136.402817,144.809998 
	C133.088058,145.862976 129.708649,146.712479 126.070755,147.725845 
	C127.305138,150.122894 128.986267,150.426239 131.384979,150.106232 
	C140.771454,148.854019 151.077759,156.176895 153.245285,165.354446 
	C153.842667,167.883774 152.795425,169.001297 150.426559,169.621948 
	C139.104340,172.588394 129.034286,167.167465 125.474007,156.092392 
	C124.347923,152.589462 118.861679,148.775589 114.805916,149.392075 
	C109.950180,150.130157 104.974022,149.582809 100.167206,151.742020 
	C97.932892,152.745682 94.741455,152.946518 91.618896,151.485153 
	C87.696533,149.649521 83.396500,151.565567 79.726112,153.380417 
	C77.583511,154.439835 76.213928,154.809158 74.485031,153.070251 
	C73.141838,151.719269 71.316826,152.047928 69.728790,152.343918 
	C51.325237,155.774155 34.800880,163.013931 21.189175,176.726166 
	C18.958334,177.000000 16.916666,177.000000 14.437500,177.000000 
M57.436520,99.909370 
	C56.378036,101.696365 54.669750,103.189278 54.778290,105.843361 
	C59.127224,104.816544 62.310730,102.191467 65.529739,99.611389 
	C66.705376,98.669106 68.060074,97.534607 69.460480,99.034622 
	C71.096420,100.786957 69.622025,102.109520 68.398552,103.218933 
	C67.171165,104.331902 65.742050,105.218781 64.446045,106.260368 
	C60.809090,109.183395 56.274200,110.422997 52.271690,112.706734 
	C59.081619,112.949074 64.741135,109.918373 70.370155,106.723389 
	C72.185883,105.692818 74.572662,103.951881 75.935143,106.778763 
	C77.185570,109.373169 74.182823,109.923447 72.644501,110.867363 
	C65.687057,115.136421 57.838940,117.177376 50.232586,119.785881 
	C66.800087,120.656723 81.482498,117.094398 91.262390,102.065048 
	C92.262108,100.528717 93.226059,98.417084 95.414810,99.573524 
	C98.065781,100.974174 96.265244,102.959236 95.454163,104.697762 
	C91.238670,113.733406 83.124519,117.942474 74.493149,121.339378 
	C65.505753,124.876389 56.143112,126.960716 46.714561,123.713310 
	C42.767433,122.353821 40.559502,123.316231 38.114464,126.049614 
	C40.264874,127.949158 42.525490,127.687180 44.815960,127.141098 
	C46.279526,126.792168 47.753529,126.251328 49.005905,127.613075 
	C51.777172,130.626343 55.485191,130.744431 59.152451,130.790161 
	C62.328758,130.829773 65.468781,130.972107 68.568581,131.733185 
	C76.213066,133.610092 83.783958,133.074722 91.246407,130.801712 
	C108.358994,125.589355 120.135223,105.483566 115.146805,88.368126 
	C113.272156,81.936111 111.879784,75.731178 111.440750,69.065361 
	C110.987610,62.185516 104.548317,56.703388 97.626534,56.072140 
	C87.200653,55.121326 78.795547,63.839260 79.254555,75.557098 
	C79.367920,78.451385 78.572525,79.731339 75.997757,80.755180 
	C72.299477,82.225784 67.591675,83.580536 66.411552,87.394508 
	C64.805054,92.586456 60.723114,95.402290 57.436520,99.909370 
M149.988403,109.571648 
	C145.962280,109.877792 142.346848,114.551086 142.293381,119.556282 
	C142.273438,121.422554 142.411362,123.188843 144.617249,123.951927 
	C147.031815,124.787201 148.410599,123.469276 149.467148,121.673378 
	C151.625275,118.005066 151.265640,114.096298 149.988403,109.571648 
M131.378128,158.053391 
	C134.061234,164.082321 140.257645,166.491379 146.333313,163.682266 
	C144.581680,159.472931 141.768982,156.593979 137.216476,155.538498 
	C135.569946,159.807190 135.569946,159.807190 131.378128,158.053391 
M89.431114,139.995193 
	C87.275497,137.524658 81.464157,136.659988 79.286766,138.501022 
	C77.900696,139.672974 78.509041,140.916855 79.329842,142.014481 
	C81.888962,145.436676 86.888687,146.546066 91.370209,144.687698 
	C91.445259,143.121460 90.386169,141.968307 89.431114,139.995193 
M36.248528,136.252838 
	C40.747780,140.092972 45.346088,139.521606 49.775616,134.545792 
	C47.430561,131.634140 45.923233,133.545593 44.320858,135.424774 
	C43.191647,136.749023 42.185329,138.929626 39.995602,137.744827 
	C37.973713,136.650833 39.488186,134.812439 39.733562,133.278259 
	C39.779270,132.992493 39.578453,132.667297 39.493988,132.369385 
	C35.094955,131.267670 35.094955,131.267670 36.248528,136.252838 
z"/>
<path fill="#000000" opacity="1.000000" stroke="none" 
	d="
M177.000000,135.536819 
	C175.165924,137.115570 173.284607,138.161011 171.506134,139.359131 
	C164.651764,143.976868 157.837280,141.911789 151.138092,139.113632 
	C149.232162,138.317566 149.811661,136.720398 150.667450,134.940094 
	C155.997711,123.851250 165.015930,121.103218 176.654633,123.080109 
	C177.000000,127.024544 177.000000,131.049088 177.000000,135.536819 
M165.280060,136.581894 
	C169.406921,135.349884 172.600388,133.111282 174.115021,128.617752 
	C169.301727,126.451988 165.281891,127.751778 160.692566,130.329971 
	C164.219482,132.153412 163.532135,134.406265 161.448212,136.886581 
	C162.979553,136.797058 163.799667,136.749100 165.280060,136.581894 
z"/>
<path fill="#000000" opacity="1.000000" stroke="none" 
	d="
M177.000000,87.541931 
	C171.802399,83.512878 171.659424,81.298584 176.648132,77.050171 
	C177.000000,80.361290 177.000000,83.722572 177.000000,87.541931 
z"/>
<path fill="#000000" opacity="1.000000" stroke="none" 
	d="
M162.785797,31.182539 
	C160.974869,27.564564 162.534195,25.299507 165.222595,23.783525 
	C168.358002,22.015478 168.169846,19.846981 166.757553,17.111744 
	C163.752045,17.018637 161.725571,18.998329 159.343964,20.010071 
	C157.431763,20.822407 157.480499,22.420174 157.864502,24.233313 
	C158.449265,26.994507 158.923233,29.795847 159.176941,32.604286 
	C159.332184,34.322811 159.619812,36.334690 156.577271,37.678211 
	C154.629364,31.815737 152.963318,26.072620 152.766647,19.953459 
	C152.723663,18.616146 153.714874,17.943130 154.885727,17.489359 
	C159.759857,15.600342 163.444763,12.443264 165.484482,7.521348 
	C165.950546,6.396729 166.692383,5.479434 168.090057,5.592683 
	C169.804001,5.731556 170.103729,7.032366 170.352249,8.405241 
	C171.359116,13.967501 172.358521,19.531549 173.432312,25.081083 
	C174.049301,28.269905 172.918488,30.658485 170.258652,32.319870 
	C167.686783,33.926308 165.212326,33.729607 162.785797,31.182539 
z"/>
<path fill="#000000" opacity="1.000000" stroke="none" 
	d="
M99.684708,63.832096 
	C102.304466,65.008034 103.549446,66.596489 102.208076,69.079109 
	C101.338440,70.688644 99.790443,71.354401 97.975288,70.992531 
	C96.120293,70.622711 94.955391,69.313560 94.995842,67.503159 
	C95.054123,64.895439 96.726349,63.711082 99.684708,63.832096 
z"/>
</svg>